<svg width="24" height="24" viewBox="0 0 24 24" fill="none" xmlns="http://www.w3.org/2000/svg">
  <rect width="24" height="24" rx="4" fill="#003366"/>
  <path d="M5 7.5C5 6.67157 5.67157 6 6.5 6H17.5C18.3284 6 19 6.67157 19 7.5V16.5C19 17.3284 18.3284 18 17.5 18H6.5C5.67157 18 5 17.3284 5 16.5V7.5Z" fill="#0066CC"/>
  <path d="M7 9.5C7 9.22386 7.22386 9 7.5 9H16.5C16.7761 9 17 9.22386 17 9.5V14.5C17 14.7761 16.7761 15 16.5 15H7.5C7.22386 15 7 14.7761 7 14.5V9.5Z" fill="white"/>
  <path d="M9 11H15V13H9V11Z" fill="#003366"/>
</svg> 